<?xml version="1.0" standalone="no"?>
<!DOCTYPE svg PUBLIC "-//W3C//DTD SVG 20010904//EN"
 "http://www.w3.org/TR/2001/REC-SVG-20010904/DTD/svg10.dtd">
<svg version="1.0" xmlns="http://www.w3.org/2000/svg"
 width="499.000000pt" height="499.000000pt" viewBox="0 0 499.000000 499.000000"
 preserveAspectRatio="xMidYMid meet">
<metadata>
Created by potrace 1.11, written by Peter Selinger 2001-2013
</metadata>
<g transform="translate(0.000000,499.000000) scale(0.100000,-0.100000)"
fill="#000000" stroke="none">
<path d="M3760 4545 c0 -6 -37 -10 -90 -10 -50 0 -90 -3 -90 -8 0 -4 -4 -6 -8
-3 -16 9 -62 15 -62 7 0 -5 -31 -7 -70 -6 -38 1 -70 -1 -70 -4 0 -3 -21 -7
-48 -8 -78 -2 -112 -7 -112 -16 0 -4 -4 -6 -9 -2 -5 3 -16 -1 -24 -9 -8 -8
-17 -13 -19 -10 -3 2 -18 -1 -34 -7 -16 -7 -35 -11 -43 -10 -7 1 -10 -2 -6 -8
3 -6 2 -11 -3 -11 -14 0 -82 -72 -76 -81 3 -5 -2 -12 -10 -15 -9 -3 -13 -10
-10 -15 3 -5 0 -9 -5 -9 -6 0 -11 -6 -11 -14 0 -12 -34 -31 -75 -41 -5 -2 -23
-9 -40 -16 -16 -7 -32 -13 -35 -14 -51 -17 -136 -60 -161 -81 -8 -8 -20 -14
-25 -14 -19 0 -82 -50 -87 -69 -2 -11 3 -28 12 -38 9 -10 17 -27 19 -38 6 -39
24 -85 33 -85 5 0 9 -7 9 -15 0 -8 5 -15 11 -15 16 0 50 -41 43 -51 -3 -5 2
-9 11 -9 9 0 14 -4 10 -9 -8 -13 62 -83 108 -106 20 -11 37 -22 37 -26 0 -4
14 -12 30 -19 17 -7 30 -16 30 -20 0 -4 11 -12 23 -17 13 -6 38 -33 55 -60 17
-26 37 -54 43 -61 6 -7 8 -16 5 -19 -3 -3 0 -15 6 -27 13 -23 15 -30 21 -93 3
-24 1 -43 -4 -43 -5 0 -9 -6 -9 -13 0 -6 -17 -30 -39 -52 -44 -46 -71 -68 -71
-60 0 3 -26 -8 -57 -26 -103 -56 -177 -78 -251 -74 -81 5 -119 11 -152 28 -31
15 -250 237 -250 253 0 7 -7 15 -16 18 -8 3 -13 10 -10 14 3 4 -6 16 -20 26
-13 11 -24 23 -24 28 0 5 -11 19 -24 31 -22 21 -42 63 -38 80 1 4 -2 7 -8 7
-5 0 -7 6 -4 14 3 8 1 17 -5 21 -6 3 -11 17 -11 30 0 12 -7 25 -15 29 -8 3
-15 14 -15 24 0 10 -5 23 -12 30 -7 7 -9 12 -5 12 4 0 2 6 -5 14 -7 8 -17 11
-22 8 -5 -3 -6 0 -3 6 8 12 -2 44 -12 38 -3 -2 -12 2 -19 10 -7 8 -8 14 -3 14
14 0 -14 50 -51 90 -37 39 -76 71 -65 53 4 -6 3 -14 -2 -18 -5 -3 -8 -14 -6
-25 2 -11 0 -20 -5 -20 -5 0 -11 -13 -15 -30 -4 -16 -10 -32 -15 -35 -15 -9
-22 33 -9 57 18 33 12 106 -9 109 -4 0 -23 2 -42 4 -19 1 -52 6 -72 10 -31 6
-38 4 -38 -9 0 -9 -3 -16 -8 -16 -4 0 -13 -9 -20 -21 -10 -16 -10 -19 -1 -13
9 5 10 2 5 -12 -5 -10 -9 -24 -9 -29 0 -6 -8 -11 -18 -11 -9 0 -15 6 -12 13 3
7 0 13 -5 13 -16 0 -43 -30 -37 -40 3 -5 -8 -24 -25 -41 -36 -38 -36 -38 -10
-86 11 -21 21 -48 23 -60 2 -12 6 -25 10 -29 3 -4 2 -15 -3 -25 -7 -12 -7 -20
0 -24 6 -4 7 -13 1 -23 -9 -18 22 -99 43 -114 6 -4 7 -8 3 -8 -9 0 73 -162 87
-172 6 -4 7 -8 2 -8 -5 0 -3 -6 3 -13 6 -8 8 -16 5 -19 -2 -3 2 -21 10 -39 19
-45 28 -70 33 -93 2 -10 14 -27 27 -37 29 -23 28 -41 -4 -69 -12 -11 -18 -20
-11 -20 7 0 10 -4 7 -9 -3 -4 3 -16 14 -26 18 -17 46 -82 42 -97 -1 -5 3 -8 8
-8 6 0 20 -9 32 -20 12 -10 25 -17 30 -14 4 3 8 2 8 -3 0 -11 -20 -40 -20 -29
0 5 -9 1 -20 -9 -21 -19 -28 -41 -9 -30 6 4 13 -2 16 -14 3 -12 10 -21 15 -21
5 0 6 -4 3 -10 -3 -5 -1 -10 5 -10 6 0 8 -4 5 -10 -3 -5 2 -10 12 -10 20 0 46
-34 35 -45 -10 -9 -9 -49 0 -56 5 -3 10 -15 13 -27 6 -34 37 -85 68 -111 15
-13 27 -30 27 -36 0 -15 120 -165 131 -165 5 0 16 -8 26 -19 10 -10 36 -24 58
-32 49 -16 77 -38 68 -53 -3 -6 -3 -8 2 -4 4 4 16 3 26 -3 11 -5 19 -6 19 -1
0 4 11 8 25 8 13 0 23 -1 21 -3 -9 -9 33 -108 45 -108 8 0 17 -4 21 -10 5 -6
8 -5 8 4 0 10 3 11 14 2 9 -7 17 -8 20 -2 3 5 14 8 23 7 10 -2 32 5 50 15 17
10 34 15 37 11 11 -10 37 -11 30 -1 -3 5 -10 7 -15 4 -5 -4 -9 -1 -9 6 0 6 8
9 19 6 10 -2 27 0 37 6 18 10 18 9 2 -10 -24 -27 -23 -40 2 -18 11 10 20 13
20 8 0 -6 -7 -14 -16 -17 -8 -3 -12 -11 -8 -17 4 -7 3 -9 -3 -6 -6 4 -14 0
-17 -9 -3 -8 -11 -12 -17 -8 -7 4 -9 3 -6 -3 7 -11 -73 -73 -93 -73 -6 0 -8
-4 -5 -10 3 -5 2 -10 -4 -10 -16 0 -50 -41 -68 -82 -18 -42 -73 -75 -130 -80
-7 -1 -13 -4 -13 -8 0 -4 -7 -7 -15 -7 -8 0 -15 5 -15 11 0 5 -7 1 -16 -10 -8
-10 -13 -14 -10 -8 3 7 -4 12 -19 11 -23 0 -24 -1 -8 -13 17 -12 16 -13 -4 -7
-19 4 -23 1 -23 -16 0 -25 -12 -27 -30 -6 -9 11 -16 12 -25 5 -8 -7 -16 -7
-19 -2 -3 5 -25 12 -48 15 -24 2 -52 8 -63 12 -11 5 -17 5 -13 0 4 -4 3 -14
-3 -22 -6 -7 -7 -13 -2 -13 18 0 10 -28 -9 -33 -10 -3 -18 -1 -18 5 0 5 -4 6
-10 3 -5 -3 -10 -2 -10 3 0 6 -9 8 -20 5 -11 -3 -20 0 -20 6 0 6 -4 11 -10 11
-5 0 -7 -7 -4 -15 8 -19 0 -19 -20 1 -9 8 -16 11 -16 5 0 -6 -8 -11 -17 -11
-9 0 -13 -3 -9 -7 4 -5 13 -8 19 -8 5 0 12 -6 15 -14 3 -8 0 -11 -7 -7 -6 4
-11 1 -11 -6 0 -10 -3 -9 -10 2 -5 8 -12 11 -16 7 -4 -4 -13 1 -21 11 -8 9
-11 11 -7 3 5 -10 3 -13 -9 -8 -9 3 -18 -1 -22 -11 -5 -14 -7 -14 -15 -2 -7
11 -10 11 -10 2 0 -9 -5 -10 -19 -2 -14 7 -22 7 -26 0 -5 -8 -11 -7 -21 1 -8
6 -14 8 -14 5 0 -4 -8 -2 -18 3 -14 7 -19 6 -19 -4 0 -8 5 -11 10 -8 6 3 7 1
3 -6 -4 -6 -24 -10 -46 -9 -21 2 -36 6 -33 11 2 4 -5 7 -16 7 -12 0 -21 -4
-21 -10 0 -5 5 -10 11 -10 5 0 7 -4 4 -10 -3 -5 -1 -10 6 -10 7 0 9 -3 6 -6
-4 -4 -14 -1 -23 7 -16 13 -16 12 -6 -8 9 -16 9 -24 0 -29 -7 -4 -8 -3 -4 4 7
12 -5 16 -33 13 -7 -2 -10 2 -6 9 6 9 2 9 -13 1 -30 -16 -36 -14 -21 7 13 15
12 16 -3 3 -10 -7 -16 -17 -13 -21 3 -5 2 -16 -2 -26 -6 -17 -7 -17 -13 0 -6
19 -24 23 -26 6 -1 -5 -2 -15 -3 -20 -1 -7 -7 -7 -20 0 -17 9 -19 7 -15 -15 2
-14 0 -25 -6 -25 -6 0 -8 5 -4 12 5 7 2 9 -8 5 -9 -3 -21 0 -28 6 -10 9 -12 8
-7 -5 4 -10 3 -17 -1 -16 -4 1 -19 -2 -34 -6 l-27 -8 24 -24 c13 -13 29 -24
35 -24 6 0 8 -4 5 -10 -8 -13 -39 -8 -61 10 -15 13 -16 13 -9 1 6 -11 4 -13
-8 -8 -11 4 -14 2 -11 -8 3 -8 11 -12 18 -9 7 3 13 -2 13 -10 0 -12 -9 -15
-34 -13 -18 1 -33 7 -33 12 0 6 -5 3 -10 -5 -9 -13 -10 -13 -10 0 -1 12 -3 12
-14 -2 -7 -10 -17 -14 -22 -10 -5 4 -5 3 -1 -3 5 -5 14 -10 19 -10 6 0 13 -5
15 -11 2 -7 -19 -9 -62 -8 -42 2 -63 -1 -59 -7 9 -16 -25 -48 -47 -44 -10 2
-19 -1 -19 -6 0 -6 -5 -7 -12 -3 -8 5 -9 2 -5 -10 4 -10 3 -15 -3 -11 -6 3
-10 1 -10 -6 0 -8 -13 -9 -45 -5 -38 6 -44 5 -39 -8 3 -9 9 -14 13 -12 4 3 12
-3 18 -13 8 -13 8 -18 -1 -18 -6 0 -24 -3 -39 -7 -16 -4 -27 -2 -27 4 0 14
-13 12 -36 -6 -10 -8 -14 -13 -8 -10 6 3 11 -1 11 -8 0 -18 -39 -7 -55 16 -14
19 -42 25 -42 8 0 -5 4 -10 8 -10 4 0 8 -9 8 -19 0 -11 -4 -18 -7 -15 -4 2
-11 -1 -15 -7 -3 -6 0 -15 7 -20 8 -5 10 -9 6 -9 -12 0 -51 21 -58 32 -3 5
-16 10 -29 13 -12 2 -25 7 -28 9 -2 3 -14 0 -26 -6 -18 -10 -19 -9 -9 4 10 12
10 15 -2 15 -8 0 -15 -5 -15 -11 0 -8 -2 -8 -8 0 -8 12 -84 34 -122 36 -14 1
-30 5 -36 10 -7 5 -16 8 -20 7 -5 -1 -27 1 -49 6 -22 4 -48 9 -59 11 -10 2
-21 6 -24 8 -6 7 -32 -20 -32 -34 0 -6 -4 -9 -8 -6 -14 8 -28 -54 -26 -109 2
-62 14 -115 25 -115 5 0 9 -7 9 -15 0 -8 6 -25 12 -38 18 -31 105 -114 120
-114 7 0 53 -19 101 -42 48 -23 98 -44 110 -46 67 -13 124 -29 142 -41 10 -8
42 -17 70 -21 59 -8 49 -9 157 1 114 11 158 11 187 2 14 -5 21 -4 18 1 -4 5 0
10 8 10 10 0 11 -5 5 -17 -6 -11 -5 -21 2 -28 9 -9 8 -12 -4 -12 -11 0 -15 -6
-11 -20 3 -12 0 -20 -7 -20 -7 0 -10 -7 -7 -15 4 -8 2 -17 -4 -20 -5 -4 -7
-10 -5 -14 3 -4 6 -31 7 -59 2 -29 6 -52 11 -52 5 0 8 -6 7 -12 -3 -19 23 -68
32 -62 5 3 6 -2 3 -10 -4 -11 0 -16 12 -16 9 0 14 -3 11 -7 -4 -3 -2 -12 4
-20 6 -7 8 -13 5 -13 -4 0 0 -7 8 -16 9 -8 14 -20 11 -25 -4 -5 -2 -9 2 -9 5
0 10 -10 10 -22 1 -13 7 -24 13 -26 5 -2 10 -10 10 -17 0 -7 8 -16 18 -20 24
-11 72 -13 72 -3 0 4 11 3 24 -2 13 -5 27 -6 30 -3 3 4 6 1 6 -7 0 -10 3 -10
15 0 12 10 15 10 15 -1 0 -9 3 -10 8 -3 13 20 72 38 72 23 0 -6 -7 -9 -16 -7
-10 2 -19 -4 -21 -12 -3 -9 -1 -11 4 -5 4 6 14 10 21 11 28 2 33 4 28 13 -9
14 20 21 33 8 9 -9 11 -8 6 4 -5 12 0 16 17 15 13 -1 25 2 28 5 3 4 12 9 20
11 27 6 40 36 44 105 3 37 9 69 15 71 6 2 9 8 5 13 -3 5 3 12 13 15 26 10 94
84 109 121 18 42 61 55 150 47 82 -7 244 -74 275 -112 10 -14 19 -21 19 -17 0
4 10 -3 23 -17 23 -24 28 -25 113 -21 49 3 93 9 98 13 5 5 17 5 28 -1 13 -7
18 -6 18 3 0 9 3 9 10 -2 7 -11 10 -11 10 -2 0 7 5 10 10 7 6 -3 10 -2 10 4 0
6 21 8 50 6 28 -2 50 -1 50 3 0 4 11 8 25 9 53 4 60 6 67 16 4 7 12 6 22 -2
11 -9 16 -10 16 -2 0 6 9 11 20 11 11 0 20 5 20 11 0 5 4 7 10 4 6 -4 7 1 3
11 -4 12 -3 15 5 10 11 -6 17 5 13 27 0 4 5 7 12 7 8 0 7 4 -3 10 -11 7 -11
10 -2 10 7 0 10 5 6 11 -6 11 51 71 60 62 2 -3 11 -1 18 3 7 5 22 10 33 12 29
5 50 10 50 12 0 1 20 4 45 6 25 2 51 6 58 9 6 2 12 -1 12 -7 0 -7 5 -6 15 2
12 10 15 10 15 0 0 -8 3 -10 7 -7 3 4 11 3 18 -3 12 -10 116 -15 150 -7 11 3
45 11 75 19 58 14 90 15 180 4 32 -4 74 -3 100 4 43 11 101 24 146 34 11 2 52
19 90 37 38 18 71 33 74 34 123 43 260 116 260 138 0 4 12 20 26 36 23 26 46
36 114 48 13 2 27 9 31 15 3 5 9 9 13 9 19 -3 23 2 24 28 0 16 -6 35 -14 41
-7 7 -11 16 -8 21 3 5 0 9 -6 9 -8 0 -10 13 -7 38 4 33 16 64 63 169 8 17 14
37 14 45 0 8 4 18 9 24 11 12 81 236 87 278 2 17 6 49 9 71 3 22 11 76 19 120
21 111 25 139 36 230 12 101 16 124 35 169 8 20 12 36 9 36 -4 0 -2 6 4 13 6
6 11 15 11 20 1 4 1 8 2 10 0 1 3 13 5 26 2 14 12 52 21 85 18 68 24 192 11
219 -5 10 -5 17 1 17 6 0 8 7 5 15 -4 8 -11 12 -16 9 -6 -4 -5 4 2 16 8 14 8
25 2 29 -5 3 -8 14 -6 24 1 9 -1 17 -5 17 -4 0 -7 10 -7 23 1 12 -4 21 -11 20
-7 -2 -10 4 -7 12 4 8 11 12 17 8 6 -3 3 4 -6 18 -20 28 -22 43 -4 33 9 -5 9
-4 0 6 -6 7 -9 19 -6 26 3 8 -1 14 -8 14 -7 0 -9 3 -6 7 4 3 2 12 -4 20 -6 7
-8 13 -4 13 4 0 1 8 -6 17 -12 14 -12 16 1 9 8 -4 6 0 -5 9 -11 9 -18 18 -17
21 2 3 -16 46 -41 97 -25 51 -52 108 -60 127 -32 74 -46 110 -42 110 2 0 -1
15 -6 33 -5 17 -12 46 -15 62 -6 39 -42 136 -56 152 -6 7 -8 13 -4 13 3 0 -5
22 -19 50 -14 27 -25 56 -25 65 0 8 -4 15 -10 15 -5 0 -10 10 -10 23 0 13 -4
27 -8 33 -16 19 -54 143 -46 155 4 7 8 27 10 46 2 18 10 41 19 49 8 9 13 20
10 25 -4 5 -3 9 2 9 4 0 17 12 27 27 13 17 14 24 5 19 -8 -5 -8 -2 2 6 18 14
34 56 31 76 -2 6 1 12 5 12 4 0 8 18 8 40 0 22 -3 40 -7 40 -5 0 -8 4 -8 10 0
5 8 7 18 4 9 -3 7 1 -6 8 -12 8 -20 17 -17 20 8 8 -39 58 -54 58 -6 0 -11 6
-11 13 0 8 -4 7 -10 -3 -9 -13 -10 -13 -10 1 0 16 -17 17 -95 4 -22 -4 -57 -7
-77 -8 -21 -1 -38 -5 -38 -8 0 -9 -103 0 -113 10 -6 6 -19 11 -29 11 -9 0 -34
9 -53 20 -20 11 -33 15 -29 8 6 -10 4 -10 -8 0 -15 12 -33 17 -93 24 -11 2
-23 8 -27 13 -5 7 -8 7 -8 0z m-2070 -591 c0 -9 -45 -84 -51 -84 -15 0 -17 29
-3 49 8 11 12 21 7 21 -14 0 17 17 32 17 8 0 15 -1 15 -3z m950 -1848 c0 -3
-4 -8 -10 -11 -5 -3 -10 -1 -10 4 0 6 5 11 10 11 6 0 10 -2 10 -4z m-1210
-556 c0 -5 -2 -10 -4 -10 -3 0 -8 5 -11 10 -3 6 -1 10 4 10 6 0 11 -4 11 -10z
m-330 -880 c0 -5 -5 -10 -11 -10 -5 0 -7 5 -4 10 3 6 8 10 11 10 2 0 4 -4 4
-10z"/>
<path d="M979 1323 c-13 -16 -12 -17 4 -4 9 7 17 15 17 17 0 8 -8 3 -21 -13z"/>
<path d="M634 1183 c3 -16 16 -22 16 -8 0 3 0 10 0 15 0 6 -4 10 -9 10 -5 0
-8 -8 -7 -17z"/>
</g>
</svg>
